<?xml version="1.0" encoding="UTF-8" standalone="no"?>
<!-- Created with Inkscape (http://www.inkscape.org/) -->

<svg
   width="5.2916665mm"
   height="7.0979843mm"
   viewBox="0 0 5.2916665 7.0979843"
   version="1.1"
   id="svg1"
   sodipodi:docname="Secret.svg"
   inkscape:version="1.3 (0e150ed6c4, 2023-07-21)"
   xmlns:inkscape="http://www.inkscape.org/namespaces/inkscape"
   xmlns:sodipodi="http://sodipodi.sourceforge.net/DTD/sodipodi-0.dtd"
   xmlns="http://www.w3.org/2000/svg"
   xmlns:svg="http://www.w3.org/2000/svg">
  <sodipodi:namedview
     id="namedview1"
     pagecolor="#505050"
     bordercolor="#eeeeee"
     borderopacity="1"
     inkscape:showpageshadow="0"
     inkscape:pageopacity="0"
     inkscape:pagecheckerboard="0"
     inkscape:deskcolor="#505050"
     inkscape:document-units="mm"
     inkscape:zoom="30.305259"
     inkscape:cx="10.014764"
     inkscape:cy="13.413514"
     inkscape:window-width="1920"
     inkscape:window-height="1009"
     inkscape:window-x="-8"
     inkscape:window-y="-8"
     inkscape:window-maximized="1"
     inkscape:current-layer="layer1" />
  <defs
     id="defs1" />
  <g
     inkscape:label="Layer 1"
     inkscape:groupmode="layer"
     id="layer1"
     transform="translate(-98.515696,-136.98806)">
    <path
       d="m 103.80736,141.97058 q 0,0.92741 -0.76981,1.52143 -0.76374,0.59403 -2.09121,0.59403 -0.75162,0 -1.382012,-0.17578 -0.624332,-0.18185 -1.048635,-0.394 v -1.27897 h 0.06061 q 0.539472,0.40612 1.200172,0.64858 0.660701,0.23639 1.266851,0.23639 0.75162,0 1.17592,-0.24246 0.42431,-0.24245 0.42431,-0.76374 0,-0.40006 -0.23034,-0.60615 -0.23034,-0.20609 -0.88497,-0.35156 -0.24246,-0.0546 -0.63646,-0.12729 -0.38793,-0.0727 -0.70919,-0.1576 -0.891039,-0.2364 -1.26685,-0.69101 -0.36975,-0.46067 -0.36975,-1.12744 0,-0.41824 0.169721,-0.78799 0.175783,-0.36975 0.527349,-0.6607 0.339442,-0.28489 0.86073,-0.44855 0.52735,-0.16972 1.17593,-0.16972 0.60614,0 1.22441,0.15154 0.62433,0.14547 1.03652,0.35763 v 1.21835 h -0.0606 q -0.43643,-0.32126 -1.06076,-0.53947 -0.62433,-0.22427 -1.22442,-0.22427 -0.62433,0 -1.05469,0.24245 -0.430367,0.2364 -0.430367,0.7092 0,0.41824 0.260644,0.63039 0.254583,0.21215 0.824363,0.3455 0.31519,0.0727 0.70313,0.14548 0.39399,0.0727 0.65464,0.13335 0.79405,0.18185 1.22442,0.62433 0.43036,0.44855 0.43036,1.18805 z"
       id="text1"
       style="font-size:12.4139px;stroke-width:0.238491;stroke-linecap:square;paint-order:markers fill stroke"
       aria-label="s" />
  </g>
</svg>
