<?xml version="1.0" encoding="UTF-8" standalone="no"?>
<!-- Created with Inkscape (http://www.inkscape.org/) -->

<svg
   width="31.999998"
   height="28"
   viewBox="0 0 8.466666 7.4083333"
   version="1.1"
   id="svg1"
   sodipodi:docname="city.svg"
   inkscape:version="1.3.2 (091e20e, 2023-11-25, custom)"
   xmlns:inkscape="http://www.inkscape.org/namespaces/inkscape"
   xmlns:sodipodi="http://sodipodi.sourceforge.net/DTD/sodipodi-0.dtd"
   xmlns="http://www.w3.org/2000/svg"
   xmlns:svg="http://www.w3.org/2000/svg">
  <sodipodi:namedview
     id="namedview1"
     pagecolor="#505050"
     bordercolor="#eeeeee"
     borderopacity="1"
     inkscape:showpageshadow="0"
     inkscape:pageopacity="0"
     inkscape:pagecheckerboard="0"
     inkscape:deskcolor="#505050"
     inkscape:zoom="28.031252"
     inkscape:cx="15.999999"
     inkscape:cy="14.002229"
     inkscape:window-width="1920"
     inkscape:window-height="1009"
     inkscape:window-x="-8"
     inkscape:window-y="-8"
     inkscape:window-maximized="1"
     inkscape:current-layer="svg1" />
  <defs
     id="defs1" />
  <g
     id="layer1"
     style="display:inline"
     transform="matrix(0.75,0,0,0.75,1.0583333,0.92604165)">
    <path
       id="path88"
       style="display:inline;fill:#000000;fill-opacity:1;stroke:none;stroke-width:0.396875;stroke-dasharray:none;stroke-opacity:1"
       d="m 4.2322998,1.3885457 c -1.2762438,0 -2.3145874,1.0404108 -2.3145874,2.3166545 0,1.2762437 1.0383436,2.3145873 2.3145874,2.3145873 1.2762436,0 2.3166544,-1.0383436 2.3166544,-2.3145873 0,-1.2762437 -1.0404108,-2.3166545 -2.3166544,-2.3166545 z m 0,0.3963582 c 1.0617569,1e-7 1.9202963,0.8585393 1.9202962,1.9202963 0,1.0617569 -0.8585393,1.9177123 -1.9202962,1.9177123 -1.061757,0 -1.9177124,-0.8559554 -1.9177124,-1.9177123 0,-1.061757 0.8559554,-1.9202963 1.9177124,-1.9202963 z M 4.2333333,2.38125 A 1.3229166,1.3229166 0 0 0 2.9104166,3.7041666 1.3229166,1.3229166 0 0 0 4.2333333,5.0270833 1.3229166,1.3229166 0 0 0 5.5562499,3.7041666 1.3229166,1.3229166 0 0 0 4.2333333,2.38125 Z" />
  </g>
</svg>
