<?xml version="1.0" encoding="UTF-8" standalone="no"?>
<!-- Created with Inkscape (http://www.inkscape.org/) -->

<svg
   width="31.999998"
   height="28"
   viewBox="0 0 8.466666 7.4083333"
   version="1.1"
   id="svg1"
   sodipodi:docname="hills.svg"
   inkscape:version="1.3.2 (091e20e, 2023-11-25, custom)"
   xmlns:inkscape="http://www.inkscape.org/namespaces/inkscape"
   xmlns:sodipodi="http://sodipodi.sourceforge.net/DTD/sodipodi-0.dtd"
   xmlns="http://www.w3.org/2000/svg"
   xmlns:svg="http://www.w3.org/2000/svg">
  <sodipodi:namedview
     id="namedview1"
     pagecolor="#505050"
     bordercolor="#eeeeee"
     borderopacity="1"
     inkscape:showpageshadow="0"
     inkscape:pageopacity="0"
     inkscape:pagecheckerboard="0"
     inkscape:deskcolor="#505050"
     inkscape:zoom="29.035714"
     inkscape:cx="16.03198"
     inkscape:cy="13.96556"
     inkscape:window-width="1920"
     inkscape:window-height="1009"
     inkscape:window-x="-8"
     inkscape:window-y="-8"
     inkscape:window-maximized="1"
     inkscape:current-layer="svg1" />
  <defs
     id="defs1" />
  <g
     id="layer1"
     style="display:inline"
     transform="matrix(0.75,0,0,0.75,1.0583334,0.85240671)">
    <path
       id="path4"
       style="color:#000000;display:inline;fill:#000000;stroke-width:0.851;stroke-dasharray:none"
       d="M 4.1378797,2.1226095 C 3.4193714,2.1226097 2.8206984,2.6110234 2.5867589,3.1845306 1.857504,3.3680648 1.3229167,4.0423534 1.3229167,4.696644 h 0.3015048 c 0,-0.5625995 0.6126942,-1.259253 1.352871,-1.2592531 0.3694592,0 0.7100174,0.1698284 0.9577483,0.4162327 C 4.1827716,4.100028 4.3306225,4.4213454 4.3306225,4.696644 H 4.6321274 C 4.6321274,4.396166 4.5140025,4.0925071 4.317314,3.8325136 4.5522611,3.454674 4.9940786,3.1514891 5.488915,3.151489 c 0.3694589,0 0.7099944,0.1698261 0.9577484,0.4162327 0.2477541,0.2464067 0.3951227,0.5677292 0.3951227,0.8430205 h 0.3019638 c 0,-0.3788817 -0.1889961,-0.7633304 -0.4855284,-1.0582499 C 6.3638708,3.0597422 5.9559154,2.8530167 5.4990112,2.8499842 5.2022355,2.4386757 4.7084313,2.1226095 4.1378797,2.1226095 Z m 0,0.3019637 c 0.3929185,0 0.7535679,0.1938851 1.0031805,0.4639595 C 4.7079391,2.9871347 4.3429284,3.2625012 4.1089682,3.6012223 3.8157587,3.326524 3.4183131,3.135886 2.9772925,3.135886 c -0.0099,0 -0.019512,7.352e-4 -0.02937,9.147e-4 C 3.1778948,2.7482284 3.6299022,2.4245733 4.1378797,2.4245732 Z" />
  </g>
</svg>
