<?xml version="1.0" encoding="UTF-8" standalone="no"?>
<!-- Created with Inkscape (http://www.inkscape.org/) -->

<svg
   width="31.999998"
   height="28"
   viewBox="0 0 8.466666 7.4083333"
   version="1.1"
   id="svg1"
   sodipodi:docname="tree_alpine.svg"
   inkscape:version="1.3.2 (091e20e, 2023-11-25, custom)"
   xmlns:inkscape="http://www.inkscape.org/namespaces/inkscape"
   xmlns:sodipodi="http://sodipodi.sourceforge.net/DTD/sodipodi-0.dtd"
   xmlns="http://www.w3.org/2000/svg"
   xmlns:svg="http://www.w3.org/2000/svg">
  <sodipodi:namedview
     id="namedview1"
     pagecolor="#505050"
     bordercolor="#eeeeee"
     borderopacity="1"
     inkscape:showpageshadow="0"
     inkscape:pageopacity="0"
     inkscape:pagecheckerboard="0"
     inkscape:deskcolor="#505050"
     inkscape:zoom="28.031252"
     inkscape:cx="15.999999"
     inkscape:cy="14.002229"
     inkscape:window-width="1920"
     inkscape:window-height="1009"
     inkscape:window-x="-8"
     inkscape:window-y="-8"
     inkscape:window-maximized="1"
     inkscape:current-layer="svg1" />
  <defs
     id="defs1" />
  <g
     id="layer1"
     style="display:inline"
     transform="matrix(0.75,0,0,0.75,1.0583334,0.92604165)">
    <path
       id="path78"
       style="color:#000000;display:inline;fill:#000000;-inkscape-stroke:none"
       d="M 4.2333333,1.5130859 C 4.0347188,1.8570469 3.83332,2.1990801 3.6328531,2.5419637 3.5735242,2.6434811 3.6281212,2.7441273 3.6700602,2.8406534 L 3.4158121,3.2762858 c -0.083063,0.1421301 -0.012813,0.286364 0.054777,0.4180623 L 3.2871378,4.0069905 v 0.00207 c -0.07421,0.1269807 -0.082998,0.2682111 -0.042891,0.3922241 0.040108,0.1240128 0.123733,0.2319271 0.2263428,0.3224609 0.1220281,0.1076668 0.2730383,0.1929359 0.4320149,0.2449463 L 3.8232291,5.8952473 H 4.6434374 L 4.5640624,4.9686889 C 4.7231717,4.9166402 4.8743465,4.8311472 4.9960774,4.7237426 5.0986873,4.6332087 5.1823125,4.5252945 5.2224202,4.4012817 5.2625281,4.2772687 5.2537387,4.1360382 5.1795287,4.0090576 v -0.00207 L 4.9960774,3.6943481 C 5.0636687,3.5626498 5.1339175,3.4184159 5.0508544,3.2762858 L 4.7971232,2.8406534 c 0.041938,-0.096526 0.096019,-0.1971724 0.03669,-0.2986897 z m -5.168e-4,0.4061768 0.4118612,0.7343221 c 0.033399,0.057148 0.02103,0.098625 -0.03359,0.1638142 l -0.050643,0.060462 0.2986898,0.5100463 c 0.057703,0.098736 0.035191,0.1837469 -0.048576,0.2852539 L 4.7614655,3.7315552 4.988325,4.120162 C 5.032551,4.195837 5.035313,4.2596841 5.011579,4.3330689 4.987845,4.4064539 4.930682,4.4865259 4.8498318,4.5578614 4.6881319,4.7005321 4.432135,4.8038411 4.2322998,4.8038411 4.0324646,4.8038411 3.7790515,4.7005321 3.6173502,4.5578613 3.5365001,4.4865258 3.4788201,4.4064536 3.4550862,4.3330688 3.4313524,4.259684 3.4341152,4.1958365 3.4783406,4.1201619 L 3.7052002,3.7315551 3.6561075,3.6731607 C 3.5723406,3.5716537 3.5498291,3.4866423 3.6075317,3.3879068 L 3.9062215,2.8778605 3.8555786,2.817399 C 3.8009586,2.752209 3.7891066,2.7107336 3.8225056,2.6535848 Z" />
  </g>
</svg>
