<?xml version="1.0" encoding="UTF-8" standalone="no"?>
<!-- Created with Inkscape (http://www.inkscape.org/) -->

<svg
   width="31.999998"
   height="28"
   viewBox="0 0 8.466666 7.4083333"
   version="1.1"
   id="svg1"
   sodipodi:docname="tree_tropical.svg"
   inkscape:version="1.3.2 (091e20e, 2023-11-25, custom)"
   xmlns:inkscape="http://www.inkscape.org/namespaces/inkscape"
   xmlns:sodipodi="http://sodipodi.sourceforge.net/DTD/sodipodi-0.dtd"
   xmlns="http://www.w3.org/2000/svg"
   xmlns:svg="http://www.w3.org/2000/svg">
  <sodipodi:namedview
     id="namedview1"
     pagecolor="#505050"
     bordercolor="#eeeeee"
     borderopacity="1"
     inkscape:showpageshadow="0"
     inkscape:pageopacity="0"
     inkscape:pagecheckerboard="0"
     inkscape:deskcolor="#505050"
     inkscape:zoom="14.517857"
     inkscape:cx="2.99631"
     inkscape:cy="18.838869"
     inkscape:window-width="1920"
     inkscape:window-height="1009"
     inkscape:window-x="-8"
     inkscape:window-y="-8"
     inkscape:window-maximized="1"
     inkscape:current-layer="svg1" />
  <defs
     id="defs1" />
  <g
     id="layer1"
     style="display:inline"
     transform="matrix(0.5,0,0,0.5,2.1166667,1.7859375)">
    <path
       id="rect31"
       style="display:inline;stroke-width:0.332999"
       d="m 2.9347046,1.0363717 c -0.294346,-4.108e-4 -0.5079794,0.078031 -0.5079794,0.078031 0,0 0.6343576,0.2168407 1.1141439,0.7245036 0.059488,0.062944 0.112003,0.1240865 0.1576131,0.1829345 C 3.575221,1.965011 3.4288192,1.9246677 3.2540649,1.9091866 2.1692218,1.8130838 1.6086873,2.7628813 1.6086873,2.7628813 c 0,0 0.7604491,-0.2835619 1.5988688,-0.1767334 0.056787,0.00724 0.1108683,0.015373 0.1627808,0.024805 -0.088078,0.02249 -0.1811853,0.058636 -0.278536,0.1126546 -0.7953074,0.4413058 -0.7379394,1.3606404 -0.7379394,1.3606404 0,0 0.3927858,-0.5522022 1.0226765,-0.8707479 0.2063995,-0.1043794 0.3853173,-0.1620595 0.5333008,-0.192753 0.016035,0.091052 0.0359,0.2217076 0.054777,0.3663859 H 4.4829305 L 3.9775349,3.4910022 c 0.00914,0.078073 0.018017,0.157155 0.025321,0.243396 h 0.587561 L 4.0116409,3.853254 c 0.00526,0.077396 0.00939,0.1560847 0.011886,0.236678 H 4.6317586 L 4.025594,4.2144722 c 1.512e-4,0.016424 0.00103,0.032624 0.00103,0.049093 0,0.073298 -0.00521,0.1514173 -0.012919,0.2315105 H 4.6069539 L 3.9992391,4.6196155 c -0.011219,0.084122 -0.024853,0.169726 -0.041341,0.2557983 H 4.5904174 L 3.9299926,5.010806 C 3.9106616,5.100312 3.8893906,5.1864892 3.8674646,5.2722888 H 4.4829305 L 3.8328409,5.405614 c -0.024083,0.088317 -0.04755,0.1700431 -0.070797,0.2470133 h 0.638204 L 3.718636,5.7926705 C 3.6590846,5.979845 3.6132161,6.1073799 3.6132161,6.1073799 h 1.1823568 c 0,0 0.081132,-0.5457044 0.081132,-1.265039 0,-0.4941578 -0.149588,-1.2414204 -0.2439128,-1.6660482 0.1170132,0.03643 0.2482708,0.088472 0.3932576,0.1653646 0.6235872,0.3307159 1.0061402,0.8909017 1.0061402,0.8909017 0,0 0.075004,-0.918445 -0.7115845,-1.3751099 -0.098913,-0.057425 -0.1934245,-0.096339 -0.2831868,-0.1204061 0.087055,-0.00315 0.1805674,-0.00272 0.2811198,0.0031 0.8437864,0.048831 1.5394409,0.4676717 1.5394409,0.4676717 0,0 -0.3763185,-1.0369404 -1.460376,-1.1415323 -0.1303531,-0.012577 -0.2480121,-0.00784 -0.3539836,0.00879 0.612168,-0.4154175 1.2640056,-0.5426026 1.2640056,-0.5426026 0,0 -0.9740282,-0.5172594 -1.8489828,0.1312582 C 4.3576361,1.7385898 4.276246,1.8169152 4.2100789,1.8967843 4.1706445,1.7458902 4.0846284,1.5867475 3.9253418,1.4306629 3.6039024,1.1156859 3.2290505,1.0367824 2.9347046,1.0363717 Z" />
  </g>
</svg>
