<?xml version="1.0" encoding="UTF-8" standalone="no"?>
<!-- Created with Inkscape (http://www.inkscape.org/) -->

<svg
   width="31.999998"
   height="28"
   viewBox="0 0 8.466666 7.4083333"
   version="1.1"
   id="svg1"
   sodipodi:docname="tree_temperate.svg"
   inkscape:version="1.3.2 (091e20e, 2023-11-25, custom)"
   xmlns:inkscape="http://www.inkscape.org/namespaces/inkscape"
   xmlns:sodipodi="http://sodipodi.sourceforge.net/DTD/sodipodi-0.dtd"
   xmlns="http://www.w3.org/2000/svg"
   xmlns:svg="http://www.w3.org/2000/svg">
  <sodipodi:namedview
     id="namedview1"
     pagecolor="#505050"
     bordercolor="#eeeeee"
     borderopacity="1"
     inkscape:showpageshadow="0"
     inkscape:pageopacity="0"
     inkscape:pagecheckerboard="0"
     inkscape:deskcolor="#505050"
     inkscape:zoom="29.035714"
     inkscape:cx="16.03198"
     inkscape:cy="13.96556"
     inkscape:window-width="1920"
     inkscape:window-height="1009"
     inkscape:window-x="-8"
     inkscape:window-y="-8"
     inkscape:window-maximized="1"
     inkscape:current-layer="svg1" />
  <defs
     id="defs1" />
  <g
     id="layer1"
     style="display:inline"
     transform="matrix(0.5,0,0,0.5,2.1518067,1.9618957)">
    <path
       id="path24"
       style="color:#000000;display:inline;fill:#000000;-inkscape-stroke:none"
       d="M 4.0798543,1.2247314 C 3.7512715,1.2256965 3.5141902,1.46797 3.3398478,1.7363281 3.2054529,1.6678169 3.0637008,1.6115144 2.9119669,1.6112711 2.3826871,1.6111556 1.9491195,2.043173 1.949235,2.5724528 v 0.00155 c 3.056e-4,0.069494 0.014253,0.1374381 0.029456,0.2051554 -0.1959917,0.180212 -0.3672262,0.3991025 -0.3674195,0.6702433 -1.155e-4,0.5290398 0.432142,0.9625035 0.9611817,0.9627319 0.073149,-2.145e-4 0.1454132,-0.014818 0.2165242,-0.031523 0.1661181,0.3017239 0.4105995,0.5799902 0.7658447,0.5803263 0.036663,-7.99e-5 0.072279,-0.00335 0.1069702,-0.0093 L 3.5703247,6.6228515 H 4.8136596 L 4.7201253,4.9118448 c 0.06715,0.023408 0.1380993,0.036995 0.2134236,0.037207 0.398789,-4.028e-4 0.643557,-0.3392607 0.7870321,-0.695048 0.1009244,0.035349 0.2053994,0.064211 0.3126424,0.064596 C 6.5625033,4.3187149 6.9960709,3.8846305 6.9959553,3.3553507 6.9960599,2.8761778 6.6217826,2.5187496 6.1618977,2.4473958 6.1226164,1.95365 5.7300235,1.5527669 5.2265543,1.5528768 5.0748718,1.552966 4.9331033,1.609603 4.7986734,1.6779337 4.6192338,1.4386302 4.3859523,1.2246628 4.0798543,1.2247314 Z m 0,0.3338298 h 0.00207 C 4.3239251,1.5591893 4.5440222,1.6976519 4.648295,1.9161621 L 4.7283935,2.0861775 4.8885904,1.984375 C 4.9897009,1.919611 5.1064806,1.88471 5.2265543,1.88464 c 0.3492622,-7.62e-5 0.6289785,0.2796399 0.6289022,0.6289021 -5.823e-4,0.010043 -0.00101,0.021519 -0.00207,0.031523 l -0.021187,0.1989542 0.1989542,-0.015503 c 0.00128,-1.004e-4 0.00285,9.26e-5 0.00413,0 0.3477441,0.00165 0.6269111,0.2786575 0.6268351,0.6268351 C 6.662198,3.704613 6.3824856,3.9843291 6.0332234,3.9842529 5.9486374,3.98395 5.867025,3.9670072 5.7893106,3.93361 L 5.5841552,3.84576 5.5567667,4.0664184 C 5.5170425,4.38117 5.2526791,4.6140776 4.935616,4.6152221 4.7114549,4.6145907 4.5046252,4.4951319 4.3924967,4.3010294 L 4.2462524,4.0467814 4.1015584,4.3046468 C 3.9908265,4.5041671 3.7830095,4.6266099 3.5548217,4.6271077 3.2724982,4.6268406 3.0254425,4.4400477 2.949174,4.168221 L 2.9042155,4.008024 2.7440185,4.0545328 C 2.6880956,4.0706257 2.630645,4.0781334 2.5724528,4.078304 2.2233541,4.0781533 1.9434744,3.7985005 1.9435506,3.4494018 1.9437036,3.2346931 2.0534891,3.0352125 2.2344889,2.9197184 L 2.3378418,2.8535726 2.3047689,2.7362671 C 2.2900973,2.6828846 2.2833082,2.6278142 2.2830648,2.5724528 2.2829886,2.2231905 2.5627047,1.9434744 2.9119669,1.9435506 c 0.1201144,1.926e-4 0.2368972,0.034311 0.3379639,0.099219 L 3.4220133,2.1543904 3.4959106,1.9626709 C 3.5886091,1.7197946 3.8200194,1.5600432 4.0798543,1.5585612 Z" />
  </g>
</svg>
